HIERARCHY
ROOT Hips
{
	OFFSET 0.000000 0.000000 0.000000
	CHANNELS 6 Xposition Yposition Zposition Xrotation Yrotation Zrotation
	JOINT LeftUpLeg
	{
		OFFSET 3.317160 0.000000 0.000000
		CHANNELS 6 Xposition Yposition Zposition Xrotation Yrotation Zrotation
		JOINT LeftLeg
		{
			OFFSET 0.000000 -16.621309 0.000000
			CHANNELS 6 Xposition Yposition Zposition Xrotation Yrotation Zrotation
			JOINT LeftFoot
			{
				OFFSET 0.000000 -16.132090 0.000000
				CHANNELS 6 Xposition Yposition Zposition Xrotation Yrotation Zrotation
				JOINT LeftToeBase
				{
					OFFSET 0.000000 -1.705429 6.364750
					CHANNELS 6 Xposition Yposition Zposition Xrotation Yrotation Zrotation
					End Site
					{
						OFFSET 0.000000 0.000000 2.952750
					}
				}
			}
		}
	}
	JOINT RightUpLeg
	{
		OFFSET -3.317160 0.000000 0.000000
		CHANNELS 6 Xposition Yposition Zposition Xrotation Yrotation Zrotation
		JOINT RightLeg
		{
			OFFSET 0.000000 -16.621309 0.000000
			CHANNELS 6 Xposition Yposition Zposition Xrotation Yrotation Zrotation
			JOINT RightFoot
			{
				OFFSET 0.000000 -16.132090 0.000000
				CHANNELS 6 Xposition Yposition Zposition Xrotation Yrotation Zrotation
				JOINT RightToeBase
				{
					OFFSET 0.000000 -1.705429 6.364750
					CHANNELS 6 Xposition Yposition Zposition Xrotation Yrotation Zrotation
					End Site
					{
						OFFSET 0.000000 0.000000 2.952750
					}
				}
			}
		}
	}
	JOINT Spine
	{
		OFFSET 0.000000 0.039370 0.000000
		CHANNELS 6 Xposition Yposition Zposition Xrotation Yrotation Zrotation
		JOINT Spine1
		{
			OFFSET 0.000000 9.216790 0.000000
			CHANNELS 6 Xposition Yposition Zposition Xrotation Yrotation Zrotation
			JOINT Neck
			{
				OFFSET 0.000000 8.819270 0.000000
				CHANNELS 3 Xrotation Yrotation Zrotation
				JOINT Head
				{
					OFFSET 0.000000 6.846361 0.000000
					CHANNELS 6 Xposition Yposition Zposition Xrotation Yrotation Zrotation
					End Site
					{
						OFFSET 0.000000 4.527550 0.000000
					}
				}
			}
			JOINT LeftShoulder
			{
				OFFSET 0.000000 8.819270 0.000000
				CHANNELS 3 Xrotation Yrotation Zrotation
				JOINT LeftArm
				{
					OFFSET 7.313730 -0.000031 0.000000
					CHANNELS 6 Xposition Yposition Zposition Xrotation Yrotation Zrotation
					JOINT LeftForeArm
					{
						OFFSET 10.822620 -0.000040 0.000000
						CHANNELS 6 Xposition Yposition Zposition Xrotation Yrotation Zrotation
						JOINT LeftHand
						{
							OFFSET 10.147810 -0.000040 0.000000
							CHANNELS 6 Xposition Yposition Zposition Xrotation Yrotation Zrotation
							JOINT LeftHandThumb
							{
								OFFSET 0.000000 0.000000 0.000000
								CHANNELS 6 Xposition Yposition Zposition Xrotation Yrotation Zrotation
								End Site
								{
									OFFSET 0.000000 0.000000 3.937000
								}
							}
							JOINT L_Wrist_End
							{
								OFFSET 3.937000 -0.000010 0.000000
								CHANNELS 6 Xposition Yposition Zposition Xrotation Yrotation Zrotation
								End Site
								{
									OFFSET 0.000000 0.100000 0.000000
								}
							}
						}
					}
				}
			}
			JOINT RightShoulder
			{
				OFFSET 0.000000 8.819270 0.000000
				CHANNELS 3 Xrotation Yrotation Zrotation
				JOINT RightArm
				{
					OFFSET -7.313730 -0.000031 0.000000
					CHANNELS 6 Xposition Yposition Zposition Xrotation Yrotation Zrotation
					JOINT RightForeArm
					{
						OFFSET -10.822620 -0.000040 0.000000
						CHANNELS 6 Xposition Yposition Zposition Xrotation Yrotation Zrotation
						JOINT RightHand
						{
							OFFSET -10.147810 -0.000040 0.000000
							CHANNELS 6 Xposition Yposition Zposition Xrotation Yrotation Zrotation
							JOINT RightHandThumb
							{
								OFFSET 0.000000 0.000000 0.000000
								CHANNELS 6 Xposition Yposition Zposition Xrotation Yrotation Zrotation
								End Site
								{
									OFFSET 0.000000 0.000000 3.937000
								}
							}
							JOINT R_Wrist_End
							{
								OFFSET -5.393688 -0.000019 0.000000
								CHANNELS 6 Xposition Yposition Zposition Xrotation Yrotation Zrotation
								End Site
								{
									OFFSET 0.000000 0.100000 0.000000
								}
							}
						}
					}
				}
			}
		}
	}
}
MOTION
Frames: 4
Frame Time: 0.041667
9.715724 34.097843 1.296385 -1.231666 15.482618 7.741296 3.317167 0.000010 -0.000000 -6.169550 -22.372659 -12.500705 0.000003 -16.621271 0.000001 4.866041 0.056462 -1.913295 -0.000009 -16.132065 -0.000227 -2.292147 15.926068 5.830527 0.000001 -1.705429 6.364749 0.000001 0.000001 0.000000 -3.317153 0.000006 0.000000 -8.200282 11.532677 -14.348078 -0.000003 -16.621281 0.000003 39.048407 1.182093 1.507250 0.000025 -16.132074 -0.000168 -8.115847 -31.407180 0.009955 -0.000001 -1.705433 6.364740 4.963022 2.413483 6.565542 -0.000005 0.039362 -0.000002 -0.000021 -0.000003 -0.000006 0.061332 9.217093 -0.002511 -2.502409 9.298042 -8.477889 3.815534 1.336032 -4.254620 -0.000002 6.846367 0.000001 3.815520 1.336043 -4.254622 0.250185 -4.125899 -18.078428 7.313750 -0.000042 0.000004 1.361341 -11.681153 -59.214216 10.822606 -0.000030 0.000001 -0.289622 -13.096895 -0.003566 10.147815 -0.000038 -0.000001 0.000001 0.000000 0.000002 0.000004 0.000004 -0.000001 -0.000000 0.000001 0.000001 3.937005 -0.000002 -0.000001 -0.000001 0.000001 -0.000001 0.410934 9.275539 13.871583 -7.313727 -0.000046 0.000004 2.620581 -6.329048 68.995094 -10.822599 -0.000022 0.000002 -0.512375 18.848387 0.004937 -10.147812 -0.000038 0.000001 -0.000001 0.000000 0.000000 -0.000003 -0.000000 -0.000001 -0.000001 -0.000002 0.000002 -5.393688 -0.000017 0.000001 -0.000002 0.000002 0.000000 
9.723396 34.099049 1.304658 -1.229247 15.448969 7.677761 3.317157 0.000018 0.000000 -6.174407 -22.382163 -12.460329 0.000002 -16.621267 -0.000000 4.940171 0.055482 -1.913159 -0.000002 -16.132050 -0.000219 -2.350253 15.980312 5.798446 0.000001 -1.705429 6.364748 -0.000000 0.000001 -0.000000 -3.317154 0.000001 -0.000001 -8.200905 11.553723 -14.303060 0.000002 -16.621298 -0.000001 39.054209 1.183143 1.506908 0.000034 -16.132040 -0.000194 -8.041605 -31.359331 0.144742 0.000001 -1.705436 6.364738 4.953018 2.417344 6.489208 0.000000 0.039365 0.000000 -0.000013 -0.000001 -0.000002 0.062074 9.216868 -0.002283 -2.546287 9.245753 -8.522233 3.748749 1.283988 -4.115413 -0.000001 6.846380 -0.000002 3.748722 1.284006 -4.115432 0.254763 -4.107318 -18.050120 7.313733 -0.000021 0.000000 1.343034 -11.525067 -59.197939 10.822600 -0.000017 -0.000001 -0.288884 -13.036900 -0.003391 10.147814 -0.000036 -0.000000 -0.000000 0.000000 -0.000000 0.000004 0.000004 -0.000000 -0.000000 0.000002 -0.000000 3.937001 -0.000006 0.000000 0.000002 0.000002 -0.000002 0.405300 9.282709 13.855408 -7.313726 -0.000048 0.000000 2.596810 -6.290007 69.078293 -10.822607 -0.000022 0.000005 -0.512788 18.784846 0.004988 -10.147808 -0.000038 0.000001 0.000001 -0.000001 0.000000 -0.000002 0.000000 0.000002 0.000000 -0.000001 -0.000001 -5.393688 -0.000014 0.000002 -0.000000 0.000001 0.000000 
9.726196 34.099400 1.312560 -1.225642 15.400820 7.625572 3.317159 0.000007 0.000001 -6.203214 -22.386000 -12.428233 0.000000 -16.621243 0.000003 5.060190 0.053777 -1.912941 -0.000002 -16.132051 -0.000224 -2.433742 16.033311 5.750262 0.000002 -1.705429 6.364751 0.000001 0.000001 -0.000000 -3.317149 0.000015 -0.000001 -8.201851 11.575754 -14.257719 -0.000001 -16.621277 -0.000002 39.060445 1.184197 1.506641 0.000027 -16.132072 -0.000175 -7.967792 -31.311336 0.279343 0.000002 -1.705436 6.364737 4.943042 2.421213 6.412869 0.000000 0.039360 -0.000001 -0.000011 0.000000 -0.000000 0.062815 9.216702 -0.002024 -2.590212 9.193509 -8.566551 3.681804 1.231557 -3.976017 -0.000004 6.846365 -0.000001 3.681791 1.231552 -3.976011 0.259367 -4.088678 -18.022217 7.313725 -0.000026 0.000005 1.364360 -11.390992 -59.146522 10.822618 -0.000019 -0.000001 -0.288204 -12.978241 -0.003203 10.147806 -0.000039 -0.000000 0.000000 0.000001 0.000001 0.000006 -0.000001 0.000001 0.000002 0.000001 -0.000002 3.937008 -0.000009 0.000000 0.000002 -0.000000 -0.000001 0.399687 9.289873 13.839212 -7.313728 -0.000048 0.000003 2.573102 -6.251018 69.161553 -10.822601 -0.000022 0.000001 -0.513127 18.675221 0.005022 -10.147812 -0.000039 -0.000001 -0.000002 -0.000002 -0.000000 -0.000002 -0.000001 0.000000 0.000004 0.000000 0.000001 -5.393688 -0.000019 -0.000001 0.000003 -0.000001 0.000001 
9.728878 34.099720 1.320368 -1.221991 15.352245 7.573436 3.317155 0.000016 0.000001 -6.233027 -22.389650 -12.396256 0.000002 -16.621225 0.000006 5.181939 0.052045 -1.912716 -0.000008 -16.132057 -0.000218 -2.518042 16.086424 5.700761 0.000001 -1.705429 6.364749 0.000001 -0.000001 -0.000000 -3.317158 0.000014 0.000001 -8.208839 11.645026 -14.199092 -0.000003 -16.621283 0.000001 39.066718 1.185251 1.506306 0.000031 -16.132046 -0.000185 -7.894011 -31.263261 0.413857 0.000003 -1.705434 6.364737 4.933069 2.425118 6.336564 -0.000002 0.039350 -0.000000 0.000020 0.000001 0.000006 0.063546 9.216477 -0.001780 -2.634215 9.141423 -8.610761 3.600639 1.166728 -3.820165 -0.000003 6.846348 0.000001 3.600615 1.166727 -3.820172 0.265658 -4.067152 -18.015134 7.313729 -0.000033 0.000004 1.386175 -11.257478 -59.094551 10.822618 -0.000020 -0.000001 -0.287451 -12.919050 -0.002998 10.147814 -0.000042 -0.000002 0.000002 -0.000001 0.000001 0.000004 0.000005 0.000001 -0.000000 0.000003 -0.000001 3.937004 -0.000005 0.000000 -0.000000 0.000001 -0.000001 0.394052 9.297047 13.823085 -7.313726 -0.000050 0.000003 2.549265 -6.212041 69.244779 -10.822590 -0.000010 0.000004 -0.513474 18.564492 0.005091 -10.147812 -0.000037 0.000003 0.000001 -0.000000 0.000001 -0.000002 -0.000001 -0.000002 0.000001 -0.000003 -0.000001 -5.393689 -0.000016 -0.000002 -0.000000 -0.000003 0.000001 
